<svg xmlns="http://www.w3.org/2000/svg" viewBox="0 0 30 30"><path d="M15 1c-.6 0-1 1.1-1 2.5V4h-1c-1.1 0-2 .9-2 2v1.8C7.5 9.3 5 12.9 5 17s4.5 10 10 10 9.7-4.2 10-9.6l-1.3 1.3c-.2.2-.5.3-.7.3s-.5 0-.7-.3L20 16.4l-2.3 2.3c-.4.4-1 .4-1.4 0L14 16.4l-2.3 2.3c-.4.4-1 .4-1.4 0s-.4-1 0-1.4l3-3c.4-.4 1-.4 1.4 0l2.3 2.3 2.3-2.3c.4-.4 1-.4 1.4 0l2.3 2.3 1.8-1.8c-.7-3.1-2.9-5.7-5.8-7V6c0-1.1-.9-2-2-2h-1v-.5c0-1.4-.4-2.5-1-2.5m-2 5h4v2h-4zm-3 5c.6 0 1 .4 1 1s-.4 1-1 1-1-.4-1-1 .4-1 1-1" style="fill:#fff"/></svg>