<svg xmlns="http://www.w3.org/2000/svg" viewBox="0 0 30 30"><path d="M15.5 3c-1.7 0-3.1 1.2-3.4 2.7-.1-.2-.3-.5-.4-.7-.2-.4-.6-.6-1-.6s-.8.3-.9.7c-.3 1.2-.9 1.9-3 1.6-.4 0-.7.1-1 .5s-.2.8 0 1.1c0 .1.1.7-.3 1.4-.1.2-.5.9-1.1.9q-.6 0-.9.6c-.2.3-.1.7.1 1 1.2 1.5.1 3.5-.2 3.8-.3.2-.5.4-.5.8 0 .3 0 .7.3.9 1.4 1.2 1.7 2.6.9 4.5-.2.4 0 .9.4 1.2.1 0 .3.2.6.2s.6-.1 1-.5c.5-.5 1.5-1.7 3.5-1.6.3 0 .7-.1.9-.4s.2-.7.1-1c0-.2 0-1 .5-1.6.4-.5.8-.6 1.3-.5.3 0 .7 0 .9-.3.2-.2.3-.6.2-.9-.2-.6 0-1.3.4-1.8.2-.2.6-.6 1.3-.6s.3 0 .5-.1c-.1.2-.2.4-.3.5-.1.4 0 .7.2 1 .8.8 1.3 1.8-.2 3.7-.2.3-.3.6-.2.9 0 .3.3.6.7.7.2 0 .4.2.5.5.3.7 0 1.9 0 2.1-.2.3-.1.7 0 1.1.2.3.6.4 1 .4 1.5-.3 2.6.2 3.1 1.4q.3.6.9.6c.6 0 0 0 0 0 .4 0 .8-.3.9-.7.5-1.6 2.2-2.2 2.7-2.3.3 0 .5-.3.7-.6.1-.3 0-.7-.2-1-.8-1-1.5-2.4 0-3.6.2-.2.3-.5.3-.8s-.2-.6-.5-.8c-1.3-.8-1.5-2.1-.5-3.7.2-.3.2-.7 0-1s-.5-.5-.8-.5-.7-.2-1-.4c1.1-.6 1.8-1.7 1.8-3 0-1.9-1.6-3.5-3.5-3.5s-1.9.4-2.5 1.1c-.2-1.7-1.7-3.1-3.5-3.1Zm0 2c.8 0 1.5.7 1.5 1.5S16.3 8 15.5 8 14 7.3 14 6.5 14.7 5 15.5 5m6 2c.8 0 1.5.7 1.5 1.5s-.7 1.5-1.5 1.5S20 9.3 20 8.5 20.7 7 21.5 7M17 10c.6 0 1 .4 1 1s-.4 1-1 1-1-.4-1-1 .4-1 1-1" style="fill:#fff"/></svg>