<svg xmlns="http://www.w3.org/2000/svg" data-name="Layer 2" viewBox="0 0 23.38 25.9"><path d="M11.24 0c-.6 0-1 .5-1 1v1.4l-.6-.3c-.1 0-.3-.1-.5-.1-.6 0-1 .5-1 1q0 .6.6.9l1.4.7V7h-1.9c-.4 0-.7.2-.9.5l-.9 1.6-2.1-1.2V6.3c.1-.6-.3-1-.8-1.1-.5 0-.9.4-.9 1v.6l-1.2-.7c-.1 0-.3-.1-.5-.1-.6 0-1 .5-.9 1.1 0 .3.2.6.5.8l1.2.7-.5.3c-.5.3-.6.9-.3 1.4s.9.6 1.4.3l1.4-.9 2.1 1.2-.9 1.6c-.2.3-.2.7 0 1l.9 1.6-2.1 1.2-1.4-.9c-.2-.1-.4-.2-.6-.2-.6 0-1 .5-1 1 0 .3.2.7.5.8l.5.3-1.2.7c-.5.3-.7.9-.4 1.4s.9.7 1.4.4l1.2-.7v.6c0 .6.5 1 1.1 1s1-.5 1-1v-1.6l2-1.2.9 1.6c.2.3.5.5.9.5h1.9v2.4l-1.4.7c-.5.2-.7.8-.4 1.3s.8.7 1.3.4l.6-.3v1.4c0 .6.4 1 1 1s1-.4 1-1v-1.4l.6.3c.5.2 1.1 0 1.3-.4.2-.5 0-1.1-.4-1.3l-1.4-.7V19h1.9c.4 0 .7-.2.9-.5l.9-1.6 2.1 1.2v1.6c-.1.6.3 1 .8 1.1.6 0 1-.4 1.1-.9v-.6l1.2.7c.5.3 1.1.2 1.4-.3s.2-1.1-.3-1.4l-1.2-.7.5-.3c.5-.3.6-.9.3-1.4-.2-.3-.5-.5-.9-.5-.2 0-.4 0-.5.2l-1.4.9-2.1-1.2.9-1.6c.2-.3.2-.7 0-1l-.9-1.6 2.1-1.2 1.4.9c.4.3 1.1.2 1.4-.2s.2-1.1-.2-1.4l-.5-.3 1.2-.7c.5-.3.7-.9.4-1.4-.2-.3-.5-.5-.8-.5-.2 0-.4 0-.5.1l-1.2.7v-.6c0-.5-.5-.9-1-1-.6 0-1 .4-1 1v1.6l-2 1.2-.9-1.6c-.2-.3-.5-.5-.9-.5h-1.9V4.8l1.4-.7c.5-.2.7-.8.4-1.3-.2-.5-.8-.7-1.3-.4l-.6.3V1.3c0-.6-.4-1-1-1zm-2.3 9h1.3c0 .6.4 1 1 1s1-.4 1-1h1.3l.7 1.1c-.5.3-.7.9-.4 1.4s.9.7 1.4.4l.7 1.1-.7 1.1c-.1 0-.3-.1-.5-.1h-.1c-.6 0-1 .5-.9 1.1 0 .3.2.6.5.8l-.7 1.1h-1.3c0-.6-.4-1-1-1s-1 .5-1 1h-1.3l-.7-1.1c.5-.3.7-.9.4-1.4-.2-.3-.5-.5-.8-.5-.2 0-.4 0-.5.1l-.7-1.1.7-1.1c.5.3 1.1.2 1.4-.3s.2-1.1-.3-1.4l.7-1.1zm2.3 3c-.6 0-1 .4-1 1s.4 1 1 1 1-.4 1-1-.4-1-1-1" data-name="Layer 1" style="fill:#fff"/></svg>