<svg xmlns="http://www.w3.org/2000/svg" viewBox="0 0 30 30"><path d="M15 1h-.1l-.6 1.1-1.2.2c-.1 0-.2.2 0 .3l.9.9-.2 1.2c0 .1.1.2.2.2l1.1-.6 1.1.6c.1 0 .3 0 .2-.2l-.2-1.2.9-.9v-.3l-1.2-.2-.6-1.1h-.1Zm0 5c-.3 0-.6.1-.8.4l-4.8 4.8c-.2.2-.4.5-.4.8 0 .6.4 1 1 1h3l-5.4 4.3q-.6.45-.6 1.2c0 .8.7 1.5 1.5 1.5h3.4l-6.3 5.3q-.6.45-.6 1.2c0 .8.7 1.5 1.5 1.5h17c.8 0 1.5-.7 1.5-1.5q0-.75-.6-1.2S18.1 20 18.1 20h3.4c.8 0 1.5-.7 1.5-1.5q0-.75-.6-1.2S17 13 17 13h3c.6 0 1-.4 1-1 0-.3-.1-.6-.4-.8l-4.8-4.8c-.2-.2-.5-.4-.8-.4m-1 3c.6 0 1 .4 1 1s-.4 1-1 1-1-.4-1-1 .4-1 1-1m3 7c.6 0 1 .4 1 1s-.4 1-1 1-1-.4-1-1 .4-1 1-1m-4 6c.6 0 1 .4 1 1s-.4 1-1 1-1-.4-1-1 .4-1 1-1m5 2c.6 0 1 .4 1 1s-.4 1-1 1-1-.4-1-1 .4-1 1-1" style="fill:#fff"/></svg>