<?xml version="1.0" encoding="UTF-8"?>
<svg xmlns="http://www.w3.org/2000/svg" viewBox="0 0 62.28 47.28">
  <defs>
    <style>
      .cls-1 {
        fill: #ff3cac;
      }

      .cls-1, .cls-2, .cls-3 {
        mix-blend-mode: hard-light;
      }

      .cls-2 {
        fill: #fff;
      }

      .cls-4 {
        isolation: isolate;
      }

      .cls-3 {
        fill: #51eaf0;
      }
    </style>
  </defs>
  <g class="cls-4">
    <g id="Layer_2" data-name="Layer 2">
      <g id="Layer_1-2" data-name="Layer 1">
        <g>
          <g>
            <rect class="cls-1" x="45" y="32.28" width="2.28" height="5.22"/>
            <rect class="cls-1" x="52.5" y="9.78" width="2.28" height="5.22"/>
            <polygon class="cls-1" points="52.5 30 54.78 30 54.78 22.5 47.28 22.5 47.28 17.28 45 17.28 45 24.78 52.5 24.78 52.5 30"/>
            <polygon class="cls-1" points="52.5 7.5 47.28 7.5 47.28 2.28 45 2.28 45 9.78 52.5 9.78 52.5 7.5"/>
            <polygon class="cls-1" points="2.28 45 2.28 39.78 0 39.78 0 47.28 52.5 47.28 52.5 45 2.28 45"/>
            <rect class="cls-1" x="54.78" y="37.5" width="5.22" height="2.28"/>
            <polygon class="cls-1" points="30 15 24.78 15 24.78 9.78 22.5 9.78 22.5 17.28 30 17.28 30 15"/>
            <polygon class="cls-1" points="30 30 24.78 30 24.78 24.78 22.5 24.78 22.5 32.28 30 32.28 30 30"/>
          </g>
          <g>
            <polygon class="cls-2" points="54.78 15 52.5 15 52.5 17.28 47.28 17.28 47.28 22.5 54.78 22.5 54.78 30 52.5 30 52.5 32.28 47.28 32.28 47.28 37.5 45 37.5 45 39.78 2.28 39.78 2.28 45 52.5 45 52.5 39.78 54.78 39.78 54.78 37.5 60 37.5 60 9.78 54.78 9.78 54.78 15"/>
            <rect class="cls-2" x="24.78" y="24.78" width="5.22" height="5.22"/>
            <rect class="cls-2" x="47.28" y="2.28" width="5.22" height="5.22"/>
            <rect class="cls-2" x="24.78" y="9.78" width="5.22" height="5.22"/>
          </g>
          <g>
            <polygon class="cls-3" points="30 15 32.28 15 32.28 7.5 24.78 7.5 24.78 9.78 30 9.78 30 15"/>
            <polygon class="cls-3" points="30 30 32.28 30 32.28 22.5 24.78 22.5 24.78 24.78 30 24.78 30 30"/>
            <rect class="cls-3" x="47.28" y="15" width="5.22" height="2.28"/>
            <rect class="cls-3" x="47.28" y="30" width="5.22" height="2.28"/>
            <rect class="cls-3" x="2.28" y="37.5" width="42.72" height="2.28"/>
            <polygon class="cls-3" points="54.78 7.5 54.78 9.78 60 9.78 60 37.5 62.28 37.5 62.28 7.5 54.78 7.5"/>
            <polygon class="cls-3" points="47.28 0 47.28 2.28 52.5 2.28 52.5 7.5 54.78 7.5 54.78 0 47.28 0"/>
            <rect class="cls-3" x="52.5" y="39.78" width="2.28" height="5.22"/>
          </g>
        </g>
      </g>
    </g>
  </g>
</svg>