<?xml version="1.0" encoding="UTF-8"?>
<svg id="Layer_2" data-name="Layer 2" xmlns="http://www.w3.org/2000/svg" viewBox="0 0 202.39 126.66">
  <g id="Layer_1-2" data-name="Layer 1">
    <g>
      <path d="M85.26,70.44c.34-1.13.68-2.16,1.02-3.07.62-1.82,1.08-3.18,1.36-4.09.17-.79.26-1.39.26-1.79v-.64c0-.31-.17-.64-.51-.98-.57-.57-1.22-.85-1.96-.85-.06,0-.31.01-.77.04-.45.03-.91.44-1.36,1.24-.11.23-.44,1.05-.98,2.47-.54,1.42-1.18,3.12-1.92,5.11-.68,1.87-1.59,4.03-2.73,6.47-1.14,2.44-2.44,4.4-3.92,5.88-.28.28-.51.43-.68.43-.11,0-.26-.04-.43-.13-.17-.09-.45-.58-.85-1.49-.97-2.1-1.62-5.08-1.96-8.94-.23-2.04-.34-4.17-.34-6.39,0-1.87.09-3.8.26-5.79.23-2.67.34-4.83.34-6.47s-.11-2.78-.34-3.41c-1.02-2.73-2.75-4.17-5.2-4.34h-.51c-2.27,0-4.03,1.16-5.28,3.49-.79,1.76-1.28,5.48-1.45,11.16v1.3c-.1.02-.19.04-.3.06-2.19.45-4.53.99-7.03,1.62l-2.64.68v-.68c0-.57-.17-1.65-.51-3.24-.34-1.59-.71-2.98-1.11-4.17-.74-2.33-1.89-4.54-3.45-6.64-1.56-2.1-3.42-3.63-5.58-4.6-1.02-.45-2.13-.68-3.32-.68s-2.58.28-4,.85c-4.66,1.76-8.6,5.96-11.84,12.61-.68,1.42-1.22,2.6-1.62,3.53-.4.94-.85,2.17-1.36,3.71l-.77,2.13-.17-3.15c-.11-3.01-.34-5.21-.68-6.6-.34-1.39-.91-2.51-1.7-3.36-1.19-1.25-2.61-1.87-4.26-1.87-.23,0-.89.06-2,.17-1.11.11-2.2,1.02-3.28,2.73-.45.68-.79,1.69-1.02,3.02-.23,1.34-.4,3.34-.51,6-.11,1.82-.17,3.75-.17,5.79,0,6.36.55,14.25,1.66,23.68,1.11,9.43,2.85,19.05,5.24,28.87.51,2.16.98,3.65,1.41,4.47.43.82,1.01,1.38,1.75,1.66.57.28,1.14.43,1.7.43.45,0,1.02-.14,1.7-.43.68-.28,1.28-1.02,1.79-2.21.34-.68.5-2.88.47-6.6-.03-3.72-.3-10.09-.81-19.12-.11-2.95-.17-5.08-.17-6.39v-.94c0-.96.06-1.82.17-2.56l.26-2.64.34,1.28c.74,2.95,2.39,5.05,4.94,6.3,1.53.63,3.18.94,4.94.94,1.48,0,3.55-.37,6.22-1.11,2.67-.74,5.42-2.5,8.26-5.28,4.2-4.31,6.7-10.16,7.5-17.55.06-.62.13-1.15.21-1.58.09-.43.16-.69.21-.81.17-.06.82-.26,1.96-.6,1.14-.34,2.5-.71,4.09-1.11,1.28-.32,2.51-.62,3.7-.9.02.26.03.52.05.77.17,1.85.54,3.88,1.11,6.09,2.21,8.86,5.71,14.22,10.48,16.1.85.28,1.73.43,2.64.43.11,0,.48-.01,1.11-.04.62-.03,1.36-.24,2.21-.64,2.56-1.53,4.63-4.02,6.22-7.45,1.59-3.43,2.9-6.83,3.92-10.18ZM36.03,73.08c-.17.85-.5,1.96-.98,3.32-.48,1.36-.92,2.5-1.32,3.41-1.42,2.73-3.89,4.63-7.41,5.71-.79.23-1.48.34-2.04.34-.91,0-1.36-.37-1.36-1.11,0-.45.14-.99.43-1.62.68-1.36,2.07-2.95,4.17-4.77,2.1-1.82,4.49-3.52,7.15-5.11l1.53-.85-.17.68ZM36.88,65.16l-.77.34c-.23.06-.7.26-1.41.6s-1.49.74-2.34,1.19c-2.73,1.36-5.39,2.98-8.01,4.85-2.61,1.87-4.57,3.58-5.88,5.11-.34.45-.68.92-1.02,1.41-.34.48-.62.92-.85,1.32-.28.57-.45.85-.51.85v-.26c0-.34.14-1.22.43-2.64,1.53-7.15,3.45-13.13,5.75-17.93,2.3-4.8,4.78-7.91,7.45-9.33.68-.28,1.31-.43,1.87-.43,1.08,0,2.04.68,2.9,2.04.85,1.36,1.46,3.25,1.83,5.66.37,2.41.55,4.19.55,5.32v1.87Z"/>
      <path d="M62.69,26.23c.4.4.94.77,1.62,1.11.4.23.79.37,1.19.43h1.36c2.9-.34,4.57-1.93,5.03-4.77v-.43c0-1.93-.74-3.43-2.21-4.51-.91-.62-1.9-.94-2.98-.94-.74,0-1.53.17-2.38.51-.34.17-.67.36-.98.55-.31.2-.55.38-.72.55-.68.8-1.11,1.73-1.28,2.81-.06.34-.09.65-.09.94,0,.74.14,1.45.43,2.13.28.68.62,1.22,1.02,1.62Z"/>
      <path d="M201.88,59.88c-.57-.57-1.22-.85-1.96-.85-.06,0-.31.01-.77.04-.46.03-.91.44-1.36,1.24-.12.23-.44,1.05-.98,2.47-.54,1.42-1.18,3.12-1.92,5.11-.68,1.87-1.59,4.03-2.73,6.47-1.14,2.44-2.44,4.4-3.92,5.88-.29.28-.51.43-.68.43-.11,0-.26-.04-.43-.13-.17-.09-.46-.58-.85-1.49-.97-2.1-1.62-5.08-1.96-8.94-.23-2.04-.34-4.17-.34-6.39,0-1.87.09-3.8.26-5.79.23-2.67.34-4.83.34-6.47s-.12-2.78-.34-3.41c-1.02-2.73-2.76-4.17-5.2-4.34h-.51c-2.27,0-4.03,1.16-5.28,3.49-.8,1.76-1.28,5.48-1.45,11.16v2.04c0,.43.02.84.03,1.26-.25.37-.5.76-.75,1.21-.91,1.93-1.93,4.26-3.07,6.98-1.99,4.83-4.2,9.64-6.64,14.44-2.44,4.8-5,8.11-7.67,9.92-.79.51-1.59.77-2.38.77-.74,0-1.48-.26-2.21-.77-2.61-1.87-4.68-5.72-6.22-11.54-1.53-5.82-2.3-12.76-2.3-20.83l-.09-5.37,1.36-.77c3.8-2.04,7.75-6.05,11.84-12.01,7.1-10.62,11.02-20.64,11.75-30.07v-1.02c0-2.04-.31-4.02-.94-5.92-.62-1.9-1.73-3.49-3.32-4.77-1.59-1.28-3.72-1.92-6.39-1.92-3.97,0-7.75,1.7-11.33,5.11s-6.64,8.02-9.2,13.84c-2.56,5.82-4.31,12.42-5.28,19.8-.51,3.86-.77,8.32-.77,13.37v1.87c0,2.63.07,5.06.2,7.33-.85,1.46-2.04,3.37-3.6,5.75-1.62,2.47-3.19,4.64-4.73,6.52-1.82,2.33-3.69,3.89-5.62,4.68-.4.17-.82.26-1.28.26-1.53,0-3.07-1.16-4.6-3.49-.45-.79-.99-1.87-1.62-3.24s-1.18-2.68-1.66-3.96c-.48-1.28-.72-2.09-.72-2.43,0-.17.85-1.45,2.56-3.83,1.7-2.38,3.69-5.12,5.96-8.22,2.27-3.09,4.36-5.9,6.26-8.43,1.9-2.53,3.17-4.1,3.79-4.73.28-.34.55-.67.81-.98.26-.31.44-.55.55-.72.17-.34.26-.71.26-1.11,0-.34-.11-.79-.34-1.36-.23-.57-.71-1.02-1.45-1.36-.34-.17-.71-.26-1.11-.26-.23,0-.55.07-.98.21-.43.14-1.16.75-2.21,1.83-1.05,1.08-2.48,2.8-4.3,5.15-1.82,2.36-4.2,5.49-7.15,9.41l-4.6,6.05-.51-3.15c-.45-3.01-.99-5.32-1.62-6.94-.62-1.62-1.48-2.88-2.56-3.79-1.36-1.36-2.87-2.04-4.51-2.04-.23,0-.48.03-.77.09-.4.06-.82.13-1.28.21-.45.09-.77.19-.94.3-.68.34-1.29.82-1.83,1.45-.54.63-.92,1.28-1.15,1.96-.17.74-.26,1.65-.26,2.73,0,1.82.36,4.59,1.06,8.3.71,3.72,1.92,7.74,3.62,12.05.23.51.4.98.51,1.41.11.43.17.67.17.72-.06.11-.38.58-.98,1.41-.6.82-1.32,1.83-2.17,3.02-2.04,2.84-3.83,5.4-5.37,7.67-1.53,2.27-2.56,3.95-3.07,5.03-.28.63-.48,1.14-.6,1.53-.06.23-.08.45-.08.68v.34c.17,1.08.77,1.96,1.79,2.64.63.34,1.25.51,1.87.51,1.14,0,2.27-.57,3.41-1.7.57-.62,1.22-1.49,1.96-2.6.74-1.11,1.9-2.99,3.49-5.66.51-.79.99-1.56,1.45-2.3.51-.85.95-1.58,1.32-2.17.37-.6.58-.95.64-1.06.11-.17.2-.26.26-.26h.09c.11,0,.26.11.43.34.17.23.48.63.94,1.19.85,1.14,1.85,2.24,2.98,3.32,1.14,1.08,2.16,1.93,3.07,2.56,2.44,1.48,4.85,2.21,7.24,2.21,3.18,0,6.27-1.33,9.28-4,2.16-2.16,4.41-5.2,6.77-9.11.76-1.26,1.44-2.44,2.09-3.58,1.17,7.74,2.99,14.23,5.49,19.43,3.8,7.61,8.35,11.95,13.63,13.03h1.11c.45,0,1.06-.03,1.83-.09.77-.06,1.52-.23,2.26-.51,4.43-1.59,8.63-6.27,12.61-14.05,2.39-4.94,4.63-10.16,6.73-15.67.04-.1.08-.19.12-.29,0,.01,0,.02,0,.03,2.21,8.86,5.71,14.22,10.48,16.1.85.28,1.73.43,2.64.43.11,0,.48-.01,1.11-.04.62-.03,1.36-.24,2.21-.64,2.56-1.53,4.63-4.02,6.22-7.45,1.59-3.43,2.9-6.83,3.92-10.18.34-1.13.68-2.16,1.02-3.07.62-1.82,1.08-3.18,1.36-4.09.17-.79.26-1.39.26-1.79v-.64c0-.31-.17-.64-.51-.98ZM141.45,44.72c.17-1.48.47-3.38.89-5.71.43-2.33.87-4.34,1.32-6.05,1.08-4.31,2.53-8.33,4.34-12.05,1.82-3.72,3.72-6.54,5.71-8.47,1.14-1.02,2.02-1.53,2.64-1.53.17,0,.47.13.89.38.43.26.7,1.09.81,2.51.06.57.09,1.14.09,1.7,0,.91-.07,1.96-.21,3.15-.14,1.19-.33,2.16-.55,2.9-1.08,4.15-2.9,8.45-5.45,12.9-2.56,4.46-5.37,8.3-8.43,11.54l-1.53,1.53-.68.6c-.06,0-.09-.17-.09-.51,0-.45.09-1.42.26-2.9Z"/>
      <path d="M177.18,26.23c.4.4.94.77,1.62,1.11.4.23.79.37,1.19.43h1.36c2.9-.34,4.57-1.93,5.03-4.77v-.43c0-1.93-.74-3.43-2.21-4.51-.91-.62-1.9-.94-2.98-.94-.74,0-1.53.17-2.38.51-.34.17-.67.36-.98.55-.31.2-.55.38-.72.55-.68.8-1.11,1.73-1.28,2.81-.06.34-.09.65-.09.94,0,.74.14,1.45.43,2.13.28.68.62,1.22,1.02,1.62Z"/>
    </g>
  </g>
</svg>